<svg id="Layer_1" data-name="Layer 1" xmlns="http://www.w3.org/2000/svg" viewBox="0 0 1209.88 457.11"><defs><style>.cls-1{fill:#e5f7f9;}.cls-2{fill:#b6dfdc;}.cls-3{fill:#c3c0c4;}.cls-4{fill:#606060;}.cls-10,.cls-29,.cls-38,.cls-4,.cls-9{stroke:#8a94a1;}.cls-10,.cls-11,.cls-12,.cls-13,.cls-14,.cls-18,.cls-20,.cls-22,.cls-28,.cls-29,.cls-30,.cls-31,.cls-32,.cls-33,.cls-36,.cls-38,.cls-4,.cls-5,.cls-9{stroke-miterlimit:10;}.cls-4,.cls-5{stroke-width:11px;}.cls-10,.cls-11,.cls-12,.cls-13,.cls-14,.cls-18,.cls-20,.cls-28,.cls-29,.cls-30,.cls-31,.cls-32,.cls-33,.cls-36,.cls-38,.cls-5,.cls-9{fill:none;}.cls-12,.cls-28,.cls-5{stroke:#6d7580;}.cls-6{fill:#dbc8b5;}.cls-7{fill:#ad9f8e;}.cls-8{fill:#6e848e;}.cls-29,.cls-9{stroke-width:4.57px;}.cls-10,.cls-11,.cls-12{stroke-width:8px;}.cls-11,.cls-20{stroke:#48404d;}.cls-13{stroke:#e5e9f0;}.cls-13,.cls-33{stroke-width:15px;}.cls-14{stroke:#414b58;}.cls-14,.cls-20{stroke-width:14px;}.cls-15{fill:#bfc4c9;}.cls-16{fill:#536070;}.cls-17{fill:#fff;}.cls-18{stroke:#536070;}.cls-18,.cls-22,.cls-36{stroke-width:18px;}.cls-19{fill:#5d5263;}.cls-21{fill:#c1c1c1;}.cls-22{fill:#8f8490;}.cls-22,.cls-36{stroke:#5d5263;}.cls-23{fill:#8a94a1;}.cls-24{fill:#6d7580;}.cls-25{fill:#5c5868;}.cls-26{fill:#f3f3f3;}.cls-27{fill:#a2a0a8;}.cls-28{stroke-width:3.62px;}.cls-29,.cls-30,.cls-31,.cls-32,.cls-33{stroke-linecap:round;}.cls-30,.cls-31,.cls-32,.cls-33{stroke:#e3e4e8;}.cls-30{stroke-width:17px;}.cls-31{stroke-width:10.28px;}.cls-32{stroke-width:10px;}.cls-34{fill:#414b58;}.cls-35{fill:#48404d;}.cls-37{fill:#aca3ac;}.cls-38{stroke-width:6.86px;}</style></defs><title>1_illu</title><rect class="cls-1" x="83.76" width="823" height="444.9"/><polygon class="cls-2" points="649.76 352 550.76 352 550.76 349 541.76 349 541.76 352 535.76 352 535.76 343 523.76 343 523.76 396 465.76 396 465.76 372 456.76 372 456.76 381 339.76 381 339.76 377 326.76 377 326.76 402 329.76 411 329.76 444.9 660.76 444.9 660.76 347 649.76 347 649.76 352"/><polygon class="cls-2" points="83.76 444.9 320.76 444.9 320.76 424 304.76 408 304.76 298 175.76 298 175.76 255 155.76 255 155.76 290 110.76 290 110.76 275 99.76 275 99.76 281 83.76 281 83.76 444.9"/><polygon class="cls-2" points="869.76 331 869.76 293 860.76 293 860.76 293 854.76 293 854.76 311 767.76 311 767.76 265 671.45 265.33 671.43 444.9 906.76 444.9 906.76 331 869.76 331"/><rect class="cls-3" x="339.76" width="13" height="452"/><rect class="cls-3" x="618.76" width="13" height="452"/><line class="cls-4" x1="1138.26" y1="402" x2="1138.26" y2="421"/><line class="cls-5" x1="1138.26" y1="401" x2="1138.26" y2="410"/><rect class="cls-6" x="410.42" y="183.64" width="15" height="34.87" rx="7.5" ry="7.5" transform="translate(830.3 394.4) rotate(-180)"/><path class="cls-6" d="M410.42,150.83v38.25a12,12,0,0,0,12,12h15a12,12,0,0,0,12-12V150.83Z" transform="translate(-5.54 -7.76)"/><path class="cls-7" d="M410.29,184.76h3.38a5.63,5.63,0,0,0,5.62-5.93v-15a3.44,3.44,0,0,1,3.41-3.1h1.59v7.07a6.21,6.21,0,0,0,6-6v-2a6.08,6.08,0,0,1,6.41-6.1h12.59v-5h-39Z" transform="translate(-5.54 -7.76)"/><path class="cls-7" d="M410.29,184.76h3.38a5.63,5.63,0,0,0,5.62-5.93v-15a3.44,3.44,0,0,1,3.41-3.1h1.59v7.07a6.21,6.21,0,0,0,6-6v-2a6.08,6.08,0,0,1,6.41-6.1h12.59v-5h-39Z" transform="translate(-5.54 -7.76)"/><rect class="cls-8" x="848.27" y="451.61" width="182.14" height="5.39"/><path class="cls-9" d="M1192.94,271.11a20.19,20.19,0,1,0,0-40.37" transform="translate(-5.54 -7.76)"/><path class="cls-10" d="M1093.45,377.28A57,57,0,1,0,1179,304.91" transform="translate(-5.54 -7.76)"/><path class="cls-11" d="M1179,304.91" transform="translate(-5.54 -7.76)"/><path class="cls-11" d="M1143.15,406.31" transform="translate(-5.54 -7.76)"/><path class="cls-12" d="M1093.45,377.28A57.32,57.32,0,0,0,1105.39,392" transform="translate(-5.54 -7.76)"/><ellipse class="cls-6" cx="492.01" cy="289.86" rx="11.38" ry="7.87"/><ellipse class="cls-6" cx="489.16" cy="284.77" rx="6.98" ry="5.1"/><line class="cls-13" x1="471.51" y1="284.68" x2="482.18" y2="287.8"/><line class="cls-14" x1="415.76" y1="424" x2="415.76" y2="449"/><path class="cls-15" d="M407.69,213.54l28,9.79V220.2a12.82,12.82,0,0,0-12.81-12.81H407.69Z" transform="translate(-5.54 -7.76)"/><path class="cls-16" d="M451.22,130.39h0v1.07a4.88,4.88,0,0,1-4.88,4.87H419.67a7.5,7.5,0,0,0-7.5,7.5h-1.5a7.5,7.5,0,0,0-7.5,7.5h0V176.9a5.93,5.93,0,0,0,5.93,5.93h4.57a6,6,0,0,0,6-6h0v-12a3,3,0,0,1,3-3h1.47v6h0a6,6,0,0,0,6-6h0v-4a6.53,6.53,0,0,1,6.53-6.53h14.45a10.45,10.45,0,0,0,10.46-10.45v0a10.47,10.47,0,0,0-10.39-10.46Z" transform="translate(-5.54 -7.76)"/><path class="cls-16" d="M441.86,167.11a1.53,1.53,0,1,0,1.53-1.53A1.52,1.52,0,0,0,441.86,167.11Z" transform="translate(-5.54 -7.76)"/><path class="cls-16" d="M441.86,167.11a1.53,1.53,0,1,0,1.53-1.53A1.52,1.52,0,0,0,441.86,167.11Z" transform="translate(-5.54 -7.76)"/><rect class="cls-17" x="446.67" y="161.08" width="2.13" height="10.5" transform="translate(889.93 324.9) rotate(-180)"/><rect class="cls-16" x="425.29" y="163.52" width="22.32" height="1.38" transform="translate(867.36 320.65) rotate(-180)"/><rect class="cls-16" x="441.98" y="165.76" width="10.49" height="1.11" transform="translate(275.37 605.77) rotate(-90)"/><ellipse class="cls-17" cx="437.34" cy="180.8" rx="3.7" ry="2.48"/><path class="cls-6" d="M448.83,166.39l5.58,8.24a3,3,0,0,1-2.6,4.51h-3S448.8,167.28,448.83,166.39Z" transform="translate(-5.54 -7.76)"/><path class="cls-16" d="M431.37,444.83l10.83,9.46a8.89,8.89,0,0,0,1.77,1.2l3,1.5a12.61,12.61,0,0,0,5.71,1.37H457a5.77,5.77,0,0,1,5.77,5.77v.75H431.4l-2.3-1.26a7.7,7.7,0,0,0-7.91.36l-1.34.9h-9.18V446.72l3.64,0a11.71,11.71,0,0,0,14.46.14Z" transform="translate(-5.54 -7.76)"/><path class="cls-16" d="M431.37,444.83l10.83,9.46a8.89,8.89,0,0,0,1.77,1.2l3,1.5a12.61,12.61,0,0,0,5.71,1.37H457a5.77,5.77,0,0,1,5.77,5.77v.75H431.4l-2.3-1.26a7.7,7.7,0,0,0-7.91.36l-1.34.9h-9.18V446.72l3.64,0a11.71,11.71,0,0,0,14.46.14Z" transform="translate(-5.54 -7.76)"/><line class="cls-18" x1="416.76" y1="305" x2="416.76" y2="436"/><path class="cls-6" d="M517.42,294.63c0,4.35-5.09,10.87-11.37,10.87s-11.38-3.52-11.38-7.87,5.09-7.87,11.38-7.87S517.42,290.28,517.42,294.63Z" transform="translate(-5.54 -7.76)"/><ellipse class="cls-6" cx="503.35" cy="284.77" rx="6.98" ry="5.1"/><line class="cls-13" x1="517.99" y1="283.07" x2="508.83" y2="286.3"/><circle class="cls-19" cx="573.76" cy="303.69" r="18.12"/><line class="cls-20" x1="574.26" y1="424" x2="574.26" y2="449"/><rect class="cls-6" x="571.13" y="175.88" width="15" height="34.87" rx="7.5" ry="7.5"/><path class="cls-21" d="M594.39,217.54l-28,5.79V220.2a12.81,12.81,0,0,1,12.81-12.81h15.16Z" transform="translate(-5.54 -7.76)"/><path class="cls-6" d="M591.67,150.83v38.25a12,12,0,0,1-12,12h-15a12,12,0,0,1-12-12V150.83Z" transform="translate(-5.54 -7.76)"/><path class="cls-16" d="M560.23,167.11a1.53,1.53,0,1,1-1.53-1.53A1.52,1.52,0,0,1,560.23,167.11Z" transform="translate(-5.54 -7.76)"/><path class="cls-19" d="M560.23,167.11a1.53,1.53,0,1,1-1.53-1.53A1.52,1.52,0,0,1,560.23,167.11Z" transform="translate(-5.54 -7.76)"/><path class="cls-6" d="M553.26,166.39l-5.58,8.24a3,3,0,0,0,2.6,4.51h3S553.29,167.28,553.26,166.39Z" transform="translate(-5.54 -7.76)"/><line class="cls-22" x1="573.76" y1="305" x2="573.76" y2="436"/><path class="cls-19" d="M568.29,444.83l-10.84,9.46a9.12,9.12,0,0,1-1.76,1.2l-3,1.5a12.57,12.57,0,0,1-5.7,1.37h-4.4a5.77,5.77,0,0,0-5.77,5.77v.75h31.4l2.31-1.26a7.7,7.7,0,0,1,7.91.36l1.33.9H589V446.72l-3.65,0a11.71,11.71,0,0,1-14.46.14Z" transform="translate(-5.54 -7.76)"/><path class="cls-19" d="M588.77,212.5h0a8.65,8.65,0,0,1,8.65,8.65v92.39h-45v-64.7A36.34,36.34,0,0,1,588.77,212.5Z" transform="translate(-5.54 -7.76)"/><path class="cls-17" d="M564.92,187.44V188a3,3,0,0,1-3,3h-4.2a3,3,0,0,1-3-3v-.59" transform="translate(-5.54 -7.76)"/><rect class="cls-23" x="233.58" y="452.62" width="100.92" height="4.06"/><rect class="cls-23" x="277.86" y="387.06" width="12.35" height="66.12"/><rect class="cls-24" x="277.86" y="387.06" width="12.35" height="12.51"/><rect class="cls-24" x="281.06" y="370.89" width="5.95" height="16.26"/><rect class="cls-25" x="842.27" y="326.59" width="188.14" height="125.3"/><rect class="cls-8" x="1030.41" y="326.59" width="5" height="41.19"/><polyline class="cls-26" points="1043.6 345.83 1035.41 345.83 1035.41 341.45 1043.6 341.45 1043.6 345.83"/><polyline class="cls-26" points="1043.6 349.44 1040.74 349.44 1040.74 341.45 1043.6 341.45 1043.6 349.44"/><rect class="cls-8" x="1030.41" y="368.55" width="5" height="41.19"/><polyline class="cls-26" points="1043.74 387.99 1035.46 387.99 1035.46 383.56 1043.74 383.56 1043.74 387.99"/><polyline class="cls-26" points="1043.74 391.65 1040.85 391.65 1040.85 383.56 1043.74 383.56 1043.74 391.65"/><rect class="cls-8" x="1030.41" y="410.42" width="5.04" height="41.47"/><polyline class="cls-26" points="1043.83 429.99 1035.5 429.99 1035.5 425.53 1043.83 425.53 1043.83 429.99"/><polyline class="cls-26" points="1043.83 433.67 1040.93 433.67 1040.93 425.53 1043.83 425.53 1043.83 433.67"/><rect class="cls-25" x="917.11" y="172.59" width="77.98" height="49.41"/><rect class="cls-23" x="930.64" y="288.37" width="50.91" height="4.49"/><rect class="cls-24" x="875.69" y="296.27" width="9.71" height="30.35"/><rect class="cls-24" x="995.08" y="296.27" width="9.71" height="30.32"/><rect class="cls-23" x="875.69" y="313.38" width="9.71" height="13.25"/><rect class="cls-23" x="995.08" y="313.38" width="9.71" height="13.23"/><rect class="cls-23" x="662.26" y="460.38" width="100.92" height="4.06" transform="translate(1419.9 917.06) rotate(-180)"/><rect class="cls-23" x="706.54" y="394.82" width="12.35" height="66.12" transform="translate(1419.9 848) rotate(-180)"/><rect class="cls-24" x="706.54" y="394.82" width="12.35" height="12.51" transform="translate(1419.9 794.39) rotate(-180)"/><rect class="cls-24" x="709.74" y="378.66" width="5.95" height="16.26" transform="translate(1419.9 765.8) rotate(-180)"/><rect class="cls-27" x="227.77" y="339.05" width="121.61" height="51.98" transform="translate(-19.93 4.09) rotate(-2.3)"/><rect class="cls-27" x="226.24" y="301.24" width="12.78" height="51.98" transform="translate(-18.46 1.82) rotate(-2.3)"/><rect class="cls-27" x="652.91" y="339.05" width="121.61" height="51.98" transform="translate(1406.7 750.63) rotate(-177.7)"/><rect class="cls-27" x="763.27" y="301.24" width="12.78" height="51.98" transform="translate(1520.06 677.26) rotate(-177.7)"/><rect class="cls-23" x="842.27" y="291.33" width="188.14" height="8.7"/><rect class="cls-23" x="953.2" y="222.01" width="5.78" height="69.02"/><rect class="cls-24" x="953.2" y="222.01" width="5.78" height="6.15"/><rect class="cls-25" y="167.59" width="104.25" height="66.06"/><rect class="cls-23" x="48.26" y="233.65" width="7.73" height="218.37"/><rect class="cls-24" x="48.26" y="233.65" width="7.73" height="11.87"/><rect class="cls-23" x="18.09" y="452.12" width="68.06" height="4.21"/><circle class="cls-24" cx="1082.38" cy="450.62" r="6.18"/><line class="cls-28" x1="1077.34" y1="450.62" x2="1077.34" y2="439.18"/><circle class="cls-24" cx="1112.09" cy="450.62" r="6.18"/><line class="cls-28" x1="1107.05" y1="450.62" x2="1107.05" y2="439.18"/><circle class="cls-24" cx="1189.41" cy="450.62" r="6.18"/><line class="cls-28" x1="1194.45" y1="450.62" x2="1194.45" y2="439.18"/><circle class="cls-24" cx="1159.7" cy="450.62" r="6.18"/><line class="cls-28" x1="1164.75" y1="450.62" x2="1164.75" y2="439.18"/><path class="cls-29" d="M1178.66,363.08a22.37,22.37,0,0,0-22.37-22.37" transform="translate(-5.54 -7.76)"/><polyline class="cls-30" points="1190.59 260.53 1183.52 285.93 1172.26 321.04 1172.26 354"/><polyline class="cls-31" points="1187.41 236.49 1189.41 222.01 1196.74 208.22"/><line class="cls-32" x1="1107.76" y1="333" x2="1147.76" y2="333"/><line class="cls-33" x1="1088.76" y1="370.5" x2="1159.76" y2="370.5"/><path class="cls-16" d="M451.82,312.83c0,10-20.52,18.25-30.53,18.25a18.13,18.13,0,0,1,0-36.25C431.3,294.83,451.82,302.82,451.82,312.83Z" transform="translate(-5.54 -7.76)"/><path class="cls-16" d="M411.82,212.5h0a8.65,8.65,0,0,0-8.65,8.65v92.39h60V266C463.16,229.56,431.89,212.5,411.82,212.5Z" transform="translate(-5.54 -7.76)"/><path class="cls-34" d="M463.15,300.73l-23.06-7.26a29.39,29.39,0,0,1-18.9-18.78l-10.52-37,15.08-4.94,12.55,38.33a11.29,11.29,0,0,0,7.28,7.23l17.58,5.52Z" transform="translate(-5.54 -7.76)"/><path class="cls-35" d="M552.43,279.17l5.42-1.73a6.24,6.24,0,0,0,3.95-3.83l14.6-41.53,14.27,5.37-11.89,40.13a24.3,24.3,0,0,1-15.46,15l-10.89,3.47Z" transform="translate(-5.54 -7.76)"/><path class="cls-18" d="M417.2,229.56l12.54,38.33a20.29,20.29,0,0,0,13.1,13l36.46,11.67" transform="translate(-5.54 -7.76)"/><path class="cls-36" d="M584.89,228.06l-14.6,41.54a15.16,15.16,0,0,1-9.71,9.41l-37.8,12.05" transform="translate(-5.54 -7.76)"/><path class="cls-7" d="M591.67,184.76h-3.38a5.63,5.63,0,0,1-5.62-5.93v-15a3.44,3.44,0,0,0-3.41-3.1h-1.59v7.07a6.21,6.21,0,0,1-6-6v-2a6.08,6.08,0,0,0-6.41-6.1H552.67v-5h39Z" transform="translate(-5.54 -7.76)"/><path class="cls-37" d="M550.87,130.39h0v1.07a4.87,4.87,0,0,0,4.88,4.87h26.67a7.5,7.5,0,0,1,7.5,7.5h1.5a7.5,7.5,0,0,1,7.5,7.5h0V176.9a5.94,5.94,0,0,1-5.93,5.93h-4.57a6,6,0,0,1-6-6h0v-12a3,3,0,0,0-3-3h-1.47v6h0a6,6,0,0,1-6-6h0v-4a6.53,6.53,0,0,0-6.53-6.53H550.94a10.45,10.45,0,0,1-10.46-10.45v0a10.4,10.4,0,0,1,1.48-5.37s.29,4,5.83,4.73c-2-5.55.6-8.32,3.08-9.82Z" transform="translate(-5.54 -7.76)"/><path class="cls-38" d="M1082.88,448.77V444.2A13.14,13.14,0,0,1,1096,431.06h49.13" transform="translate(-5.54 -7.76)"/><path class="cls-38" d="M1112.59,448.77V444.2a13.13,13.13,0,0,1,13.13-13.14h14.86" transform="translate(-5.54 -7.76)"/><path class="cls-38" d="M1200,448.77V444.2a13.14,13.14,0,0,0-13.14-13.14h-49.13" transform="translate(-5.54 -7.76)"/><path class="cls-38" d="M1170.28,448.77V444.2a13.14,13.14,0,0,0-13.14-13.14h-14.85" transform="translate(-5.54 -7.76)"/><path class="cls-34" d="M404,318.43H449.7a9.68,9.68,0,0,0,2.07-4.89H403.2A18,18,0,0,0,404,318.43Z" transform="translate(-5.54 -7.76)"/><path class="cls-35" d="M562.57,318.43H596a18.15,18.15,0,0,0,1.27-4.89h-36A18.15,18.15,0,0,0,562.57,318.43Z" transform="translate(-5.54 -7.76)"/></svg>